<svg width="79" height="72" viewBox="0 0 79 72" fill="none" xmlns="http://www.w3.org/2000/svg">
<path fill-rule="evenodd" clip-rule="evenodd" d="M62.2365 0.80909C61.7812 0.0354577 60.7726 -0.22979 59.9844 0.217064L32.9965 15.5093C32.3823 15.8576 32.0634 16.553 32.2058 17.2352L41.2885 60.7976C41.3323 61.0074 41.2416 61.3172 41.1041 61.4693L40.0006 62.6907C37.7065 65.2303 35.763 66.6061 32.0688 66.6061C27.9267 66.6061 25.982 64.4632 22.9027 60.6757C19.225 56.1528 14.6489 50.5241 3.52273 50.5241H3.2476C1.73015 50.5241 0.5 51.7314 0.5 53.2207C0.5 54.7101 1.73015 55.9174 3.2476 55.9174H3.52273C12.0029 55.9174 15.2107 59.8626 18.6072 64.0396C21.6408 67.771 25.0793 72 32.0688 72C38.1027 72 41.4231 69.2454 44.1123 66.2691L54.0314 55.2913C54.0314 55.2907 77.6234 29.179 77.6234 29.179C78.0939 28.6581 78.1725 27.9 77.8176 27.2966L62.2365 0.80909Z" fill="#E6EDF7"/>
</svg>
